<svg width="768" height="640" viewBox="0 0 768 640" fill="none" xmlns="http://www.w3.org/2000/svg">
  <defs>
    <linearGradient id="bg" x1="0" y1="0" x2="768" y2="640" gradientUnits="userSpaceOnUse">
      <stop stop-color="#F8FBFF"/>
      <stop offset="1" stop-color="#DCEEFF"/>
    </linearGradient>
    <linearGradient id="blue" x1="128" y1="120" x2="380" y2="360" gradientUnits="userSpaceOnUse">
      <stop stop-color="#43C9FF"/>
      <stop offset="1" stop-color="#2D79D8"/>
    </linearGradient>
  </defs>
  <rect width="768" height="640" rx="32" fill="url(#bg)"/>
  <circle cx="164" cy="138" r="58" fill="#A9DFFF" opacity="0.55"/>
  <circle cx="606" cy="128" r="42" fill="#CFEFFF" opacity="0.7"/>
  <path d="M120 430 C166 392 220 362 280 350 C346 337 424 339 510 352 C560 359 612 378 652 408" stroke="#89C8F4" stroke-width="18" stroke-linecap="round" opacity="0.75"/>
  <path d="M110 446 C162 408 222 380 286 370 C350 360 426 364 505 377 C560 386 608 404 658 434" stroke="#78B8E8" stroke-width="9" stroke-linecap="round" opacity="0.45"/>

  <g transform="translate(180 150)">
    <path d="M112 138 C88 134 70 118 60 94 C54 78 55 58 64 42 C74 22 90 12 110 10" stroke="#F1A46C" stroke-width="28" stroke-linecap="round"/>
    <path d="M186 160 C202 134 206 110 196 88 C186 66 166 54 146 52" stroke="#F1A46C" stroke-width="28" stroke-linecap="round"/>
    <path d="M78 72 L18 36" stroke="#F1A46C" stroke-width="26" stroke-linecap="round"/>
    <path d="M176 76 L236 36" stroke="#F1A46C" stroke-width="26" stroke-linecap="round"/>

    <path d="M16 33 C36 12 62 0 88 0 C122 0 150 14 172 38" stroke="#343C4A" stroke-width="8" stroke-linecap="round" opacity="0.35"/>
    <path d="M224 31 C202 11 176 0 150 0 C116 0 88 12 66 35" stroke="#343C4A" stroke-width="8" stroke-linecap="round" opacity="0.35"/>

    <circle cx="132" cy="62" r="24" fill="#F2B48A"/>
    <circle cx="184" cy="110" r="22" fill="#F2B48A"/>
    <circle cx="90" cy="108" r="22" fill="#F2B48A"/>
    <circle cx="40" cy="50" r="18" fill="#F2B48A"/>
    <circle cx="220" cy="48" r="18" fill="#F2B48A"/>

    <path d="M12 180 C64 148 132 132 202 134 C254 135 300 148 330 170" stroke="url(#blue)" stroke-width="14" stroke-linecap="round"/>
    <path d="M34 198 C82 170 138 156 202 157 C246 158 284 168 316 186" stroke="#8CDBFF" stroke-width="8" stroke-linecap="round" opacity="0.8"/>
  </g>

  <text x="384" y="560" text-anchor="middle" fill="#2D79D8" font-family="Poppins, Arial, sans-serif" font-size="46" font-weight="700">Observa y adivina</text>
</svg>
